<?xml version="1.0" encoding="UTF-8" standalone="no"?>
<!DOCTYPE svg PUBLIC "-//W3C//DTD SVG 1.1//EN" "http://www.w3.org/Graphics/SVG/1.1/DTD/svg11.dtd">
<svg width="100%" height="100%" viewBox="0 0 3000 3000" version="1.1" xmlns="http://www.w3.org/2000/svg" xmlns:xlink="http://www.w3.org/1999/xlink" xml:space="preserve" xmlns:serif="http://www.serif.com/" style="fill-rule:evenodd;clip-rule:evenodd;stroke-miterlimit:1.5;">
    <g>
        <rect x="0" y="0" width="3000" height="3000"/>
        <g transform="matrix(1.490622,0,0,1.490622,169.785891,-83.726869)">
            <g transform="matrix(28.065359,0,0,28.065359,-26352.609169,-17197.128045)">
                <g>
                    <g transform="matrix(50,0,0,50,945.141401,654.483268)">
                        <path d="M0.444,-0L0.444,-0.01C0.446,-0.01 0.451,-0.011 0.459,-0.012C0.466,-0.013 0.474,-0.016 0.482,-0.019C0.491,-0.022 0.498,-0.027 0.505,-0.033C0.511,-0.039 0.514,-0.047 0.514,-0.056C0.514,-0.062 0.512,-0.072 0.509,-0.086C0.505,-0.099 0.5,-0.116 0.493,-0.136C0.486,-0.155 0.479,-0.177 0.47,-0.201C0.461,-0.225 0.452,-0.25 0.442,-0.276L0.176,-0.276C0.166,-0.251 0.156,-0.227 0.147,-0.204C0.138,-0.181 0.128,-0.157 0.119,-0.134C0.105,-0.098 0.098,-0.073 0.098,-0.058C0.098,-0.049 0.101,-0.042 0.106,-0.036C0.111,-0.031 0.118,-0.026 0.127,-0.022C0.135,-0.019 0.144,-0.016 0.153,-0.015C0.163,-0.013 0.172,-0.011 0.181,-0.01L0.181,-0L-0.032,-0L-0.032,-0.011C-0.015,-0.013 0,-0.018 0.013,-0.025C0.025,-0.032 0.032,-0.037 0.034,-0.04C0.039,-0.045 0.046,-0.056 0.057,-0.073C0.068,-0.09 0.081,-0.116 0.096,-0.15C0.11,-0.181 0.126,-0.217 0.143,-0.257C0.16,-0.297 0.178,-0.338 0.197,-0.381C0.215,-0.423 0.233,-0.466 0.251,-0.509C0.269,-0.551 0.286,-0.592 0.302,-0.629L0.292,-0.651C0.304,-0.656 0.315,-0.663 0.325,-0.67C0.334,-0.677 0.343,-0.685 0.35,-0.693C0.357,-0.701 0.363,-0.709 0.368,-0.716C0.373,-0.723 0.377,-0.729 0.38,-0.734L0.388,-0.734C0.409,-0.679 0.428,-0.626 0.447,-0.577C0.466,-0.527 0.484,-0.479 0.501,-0.433C0.518,-0.387 0.534,-0.342 0.55,-0.299C0.566,-0.257 0.582,-0.214 0.598,-0.172C0.605,-0.151 0.612,-0.134 0.619,-0.12C0.625,-0.107 0.632,-0.091 0.64,-0.074C0.641,-0.071 0.644,-0.067 0.649,-0.06C0.654,-0.053 0.66,-0.047 0.667,-0.04C0.675,-0.033 0.685,-0.026 0.696,-0.021C0.707,-0.016 0.721,-0.013 0.736,-0.012L0.736,-0L0.444,-0ZM0.313,-0.606C0.309,-0.597 0.303,-0.584 0.295,-0.565C0.288,-0.546 0.278,-0.524 0.267,-0.497C0.256,-0.47 0.243,-0.44 0.23,-0.407C0.216,-0.373 0.201,-0.336 0.185,-0.297L0.434,-0.297C0.423,-0.327 0.411,-0.357 0.4,-0.387C0.388,-0.417 0.377,-0.446 0.365,-0.474C0.355,-0.501 0.345,-0.526 0.336,-0.549C0.327,-0.572 0.319,-0.591 0.313,-0.606Z" style="fill:white;fill-rule:nonzero;"/>
                    </g>
                    <g transform="matrix(50,0,0,50,979.141401,654.483268)">
                        <path d="M0.349,-0L0.349,-0.01C0.335,-0.011 0.319,-0.015 0.302,-0.021C0.285,-0.027 0.272,-0.036 0.264,-0.047C0.259,-0.054 0.256,-0.067 0.255,-0.085C0.254,-0.103 0.254,-0.122 0.254,-0.141L0.254,-0.476C0.254,-0.493 0.254,-0.509 0.255,-0.525C0.255,-0.542 0.255,-0.558 0.255,-0.575C0.256,-0.59 0.256,-0.607 0.257,-0.624C0.257,-0.641 0.26,-0.656 0.266,-0.667C0.275,-0.683 0.287,-0.694 0.303,-0.699C0.319,-0.704 0.334,-0.708 0.348,-0.71L0.348,-0.72L0.049,-0.72L0.049,-0.71C0.066,-0.708 0.082,-0.705 0.096,-0.7C0.109,-0.695 0.121,-0.686 0.13,-0.675C0.134,-0.67 0.137,-0.664 0.139,-0.655C0.141,-0.647 0.143,-0.638 0.144,-0.628C0.144,-0.617 0.145,-0.606 0.145,-0.594L0.145,-0.305C0.145,-0.285 0.145,-0.266 0.144,-0.246C0.144,-0.228 0.144,-0.21 0.144,-0.194C0.143,-0.178 0.143,-0.165 0.143,-0.156C0.143,-0.145 0.143,-0.135 0.143,-0.123C0.142,-0.113 0.142,-0.102 0.141,-0.092C0.14,-0.082 0.138,-0.073 0.137,-0.066C0.135,-0.059 0.132,-0.053 0.129,-0.049C0.119,-0.038 0.107,-0.029 0.092,-0.023C0.078,-0.017 0.063,-0.013 0.046,-0.01L0.046,-0L0.349,-0Z" style="fill:white;fill-rule:nonzero;"/>
                    </g>
                </g>
            </g>
            <g transform="matrix(22.647067,0,0,22.647067,-21318.358579,-12849.387366)">
                <g transform="matrix(50,0,0,50,945.141401,654.483268)">
                    <path d="M0.636,-0.512C0.636,-0.552 0.626,-0.587 0.607,-0.616C0.588,-0.645 0.563,-0.668 0.534,-0.684C0.504,-0.701 0.472,-0.711 0.438,-0.716C0.404,-0.72 0.365,-0.722 0.321,-0.722L0.276,-0.722C0.259,-0.722 0.24,-0.722 0.221,-0.722C0.201,-0.721 0.181,-0.721 0.161,-0.721C0.141,-0.721 0.122,-0.721 0.105,-0.721C0.089,-0.72 0.074,-0.72 0.061,-0.72L0.037,-0.72L0.037,-0.71C0.055,-0.707 0.072,-0.704 0.088,-0.701C0.103,-0.697 0.116,-0.69 0.126,-0.679C0.13,-0.675 0.133,-0.668 0.136,-0.659C0.138,-0.65 0.14,-0.64 0.141,-0.63C0.142,-0.619 0.142,-0.607 0.143,-0.595C0.143,-0.582 0.143,-0.57 0.143,-0.558L0.143,-0.305C0.143,-0.285 0.143,-0.266 0.143,-0.246C0.142,-0.228 0.142,-0.21 0.142,-0.194C0.141,-0.178 0.141,-0.165 0.141,-0.156C0.141,-0.145 0.141,-0.134 0.14,-0.123C0.139,-0.112 0.139,-0.101 0.138,-0.091C0.137,-0.081 0.135,-0.072 0.133,-0.064C0.131,-0.056 0.128,-0.05 0.125,-0.046C0.116,-0.035 0.104,-0.027 0.089,-0.022C0.074,-0.017 0.058,-0.013 0.041,-0.01L0.041,-0L0.361,-0L0.361,-0.01C0.334,-0.011 0.312,-0.016 0.297,-0.025C0.282,-0.034 0.271,-0.042 0.266,-0.051C0.259,-0.061 0.256,-0.074 0.255,-0.089C0.254,-0.104 0.254,-0.123 0.253,-0.144C0.253,-0.155 0.252,-0.196 0.252,-0.207L0.252,-0.301L0.306,-0.301C0.327,-0.301 0.348,-0.302 0.369,-0.303C0.391,-0.305 0.413,-0.308 0.434,-0.311C0.455,-0.314 0.475,-0.319 0.494,-0.326C0.512,-0.333 0.53,-0.341 0.547,-0.352C0.564,-0.363 0.58,-0.377 0.593,-0.392C0.606,-0.407 0.616,-0.425 0.624,-0.445C0.632,-0.465 0.636,-0.487 0.636,-0.512ZM0.528,-0.517C0.528,-0.475 0.517,-0.437 0.494,-0.404C0.471,-0.37 0.439,-0.346 0.396,-0.331C0.375,-0.324 0.353,-0.319 0.329,-0.318C0.305,-0.316 0.279,-0.315 0.252,-0.315L0.252,-0.443C0.252,-0.475 0.252,-0.508 0.253,-0.541C0.253,-0.574 0.253,-0.603 0.254,-0.626C0.255,-0.641 0.255,-0.653 0.256,-0.661C0.257,-0.67 0.257,-0.676 0.258,-0.681C0.259,-0.686 0.26,-0.69 0.261,-0.693C0.262,-0.696 0.262,-0.699 0.263,-0.703C0.268,-0.704 0.274,-0.705 0.282,-0.706C0.289,-0.707 0.3,-0.707 0.314,-0.707C0.333,-0.707 0.352,-0.706 0.37,-0.703C0.388,-0.7 0.405,-0.695 0.421,-0.688C0.453,-0.673 0.479,-0.65 0.498,-0.62C0.518,-0.59 0.528,-0.556 0.528,-0.517Z" style="fill:white;fill-rule:nonzero;"/>
                </g>
            </g>
            <g transform="matrix(22.647067,0,0,22.647067,-20631.358579,-12838.387366)">
                <g transform="matrix(52,0,0,50,945.141401,654.483268)">
                    <path d="M0.75,-0.535L0.718,-0.73C0.703,-0.725 0.688,-0.721 0.673,-0.719C0.659,-0.716 0.641,-0.714 0.619,-0.713C0.594,-0.713 0.571,-0.713 0.551,-0.713C0.531,-0.712 0.512,-0.712 0.493,-0.712C0.474,-0.711 0.455,-0.711 0.435,-0.711L0.245,-0.711C0.226,-0.711 0.207,-0.711 0.187,-0.712C0.167,-0.712 0.144,-0.712 0.119,-0.713C0.094,-0.714 0.075,-0.715 0.062,-0.717C0.05,-0.719 0.035,-0.722 0.02,-0.725L-0.01,-0.535L-0.001,-0.532C0.003,-0.544 0.009,-0.556 0.015,-0.569C0.023,-0.582 0.03,-0.594 0.037,-0.605C0.045,-0.616 0.052,-0.626 0.06,-0.635C0.067,-0.644 0.073,-0.651 0.078,-0.656C0.092,-0.669 0.107,-0.679 0.123,-0.684C0.14,-0.689 0.161,-0.692 0.186,-0.693C0.199,-0.693 0.21,-0.693 0.22,-0.694C0.229,-0.694 0.238,-0.694 0.247,-0.694L0.313,-0.694L0.313,-0.306C0.313,-0.286 0.313,-0.267 0.312,-0.248C0.312,-0.229 0.312,-0.212 0.311,-0.197C0.311,-0.182 0.311,-0.169 0.311,-0.16C0.311,-0.149 0.311,-0.138 0.31,-0.127C0.31,-0.116 0.309,-0.105 0.308,-0.096C0.307,-0.086 0.306,-0.077 0.304,-0.07C0.303,-0.062 0.3,-0.056 0.297,-0.053C0.282,-0.036 0.266,-0.025 0.25,-0.02C0.234,-0.015 0.217,-0.012 0.2,-0.01L0.2,-0L0.525,-0L0.525,-0.01C0.51,-0.013 0.494,-0.017 0.476,-0.022C0.457,-0.027 0.443,-0.037 0.433,-0.052C0.428,-0.059 0.424,-0.072 0.423,-0.089C0.423,-0.107 0.422,-0.126 0.422,-0.145L0.422,-0.536C0.422,-0.567 0.422,-0.597 0.422,-0.626C0.423,-0.655 0.423,-0.677 0.423,-0.694L0.489,-0.694C0.498,-0.694 0.508,-0.694 0.517,-0.694C0.526,-0.693 0.537,-0.693 0.55,-0.693C0.575,-0.692 0.596,-0.69 0.613,-0.685C0.629,-0.681 0.644,-0.672 0.658,-0.659C0.663,-0.654 0.67,-0.647 0.677,-0.638C0.684,-0.628 0.692,-0.617 0.7,-0.606C0.707,-0.595 0.715,-0.583 0.722,-0.57C0.729,-0.557 0.736,-0.544 0.741,-0.532L0.75,-0.535Z" style="fill:white;fill-rule:nonzero;"/>
                </g>
            </g>
            <g transform="matrix(5.323449,0,0,0.330156,-7150.478952,827.375495)">
                <rect x="1500" y="1012" width="139" height="79" style="fill:white;"/>
            </g>
        </g>
        <g transform="matrix(1,0,0,1,143.410235,90.928018)">
            <path d="M220,3027.762C97.688,2960.14 63.633,2895.192 22.627,2789.404C-75.386,2536.546 16.127,2203.612 396,2203" style="fill:none;stroke:rgb(59,101,255);stroke-width:150px;"/>
        </g>
        <g transform="matrix(1,0,0,1,1881,-1507.071982)">
            <path d="M-148,2938.762C135.763,2803.97 -364.989,2401.641 -53.71,2212.387C40.597,2155.05 291.318,2141.605 557,2401.463C881.759,2719.102 1056.143,2402.965 947.526,2164.213C789.563,1816.994 -367.995,2053.123 500.5,1165.039" style="fill:none;stroke:rgb(59,101,255);stroke-width:150px;"/>
        </g>
        <g transform="matrix(1.008929,0,0,1,-21.25,0)">
            <path d="M2155.504,608L2155.504,947L2381.487,971L2381.487,615L2155.504,608Z" style="fill:white;"/>
        </g>
    </g>
</svg>
